<mxfile host="app.diagrams.net" agent="Mozilla/5.0 (Windows NT 10.0; Win64; x64) AppleWebKit/537.36 (KHTML, like Gecko) Chrome/130.0.0.0 Safari/537.36" version="25.0.1">
  <diagram name="Page-1" id="a0X_AfXO-eGEAeAlHJ21">
    <mxGraphModel dx="2687" dy="1173" grid="1" gridSize="10" guides="1" tooltips="1" connect="1" arrows="1" fold="1" page="1" pageScale="1" pageWidth="850" pageHeight="1100" math="0" shadow="0">
      <root>
        <mxCell id="0" />
        <mxCell id="1" parent="0" />
        <mxCell id="lJhDyDG1HW2excrZ2yXK-1" value="Simulation" style="swimlane;fontStyle=1;align=center;verticalAlign=top;childLayout=stackLayout;horizontal=1;startSize=26;horizontalStack=0;resizeParent=1;resizeParentMax=0;resizeLast=0;collapsible=1;marginBottom=0;whiteSpace=wrap;html=1;" parent="1" vertex="1">
          <mxGeometry x="150" y="136" width="180" height="148" as="geometry" />
        </mxCell>
        <mxCell id="lJhDyDG1HW2excrZ2yXK-2" value="+ factories : vector&amp;lt;Factories&amp;gt;" style="text;strokeColor=none;fillColor=none;align=left;verticalAlign=top;spacingLeft=4;spacingRight=4;overflow=hidden;rotatable=0;points=[[0,0.5],[1,0.5]];portConstraint=eastwest;whiteSpace=wrap;html=1;" parent="lJhDyDG1HW2excrZ2yXK-1" vertex="1">
          <mxGeometry y="26" width="180" height="44" as="geometry" />
        </mxCell>
        <mxCell id="lJhDyDG1HW2excrZ2yXK-3" value="" style="line;strokeWidth=1;fillColor=none;align=left;verticalAlign=middle;spacingTop=-1;spacingLeft=3;spacingRight=3;rotatable=0;labelPosition=right;points=[];portConstraint=eastwest;strokeColor=inherit;" parent="lJhDyDG1HW2excrZ2yXK-1" vertex="1">
          <mxGeometry y="70" width="180" height="8" as="geometry" />
        </mxCell>
        <mxCell id="lJhDyDG1HW2excrZ2yXK-4" value="+ Simulation()&amp;nbsp;&lt;div&gt;+ ~Simulation() : Virtual&lt;/div&gt;&lt;div&gt;+ setFactory(int) : void&lt;br&gt;&lt;/div&gt;&lt;div&gt;+ Loop() : void&lt;br&gt;&lt;div&gt;&lt;br&gt;&lt;/div&gt;&lt;/div&gt;" style="text;strokeColor=none;fillColor=none;align=left;verticalAlign=top;spacingLeft=4;spacingRight=4;overflow=hidden;rotatable=0;points=[[0,0.5],[1,0.5]];portConstraint=eastwest;whiteSpace=wrap;html=1;" parent="lJhDyDG1HW2excrZ2yXK-1" vertex="1">
          <mxGeometry y="78" width="180" height="70" as="geometry" />
        </mxCell>
        <mxCell id="lJhDyDG1HW2excrZ2yXK-5" value="&lt;i&gt;RegionFactory&lt;/i&gt;" style="swimlane;fontStyle=1;align=center;verticalAlign=top;childLayout=stackLayout;horizontal=1;startSize=26;horizontalStack=0;resizeParent=1;resizeParentMax=0;resizeLast=0;collapsible=1;marginBottom=0;whiteSpace=wrap;html=1;" parent="1" vertex="1">
          <mxGeometry x="-130" y="150" width="230" height="60" as="geometry" />
        </mxCell>
        <mxCell id="lJhDyDG1HW2excrZ2yXK-8" value="+ createBird() : virtual vector&amp;lt;Bird*&amp;gt;" style="text;strokeColor=none;fillColor=none;align=left;verticalAlign=top;spacingLeft=4;spacingRight=4;overflow=hidden;rotatable=0;points=[[0,0.5],[1,0.5]];portConstraint=eastwest;whiteSpace=wrap;html=1;" parent="lJhDyDG1HW2excrZ2yXK-5" vertex="1">
          <mxGeometry y="26" width="230" height="34" as="geometry" />
        </mxCell>
        <mxCell id="lJhDyDG1HW2excrZ2yXK-9" value="KalosRegionFactory" style="swimlane;fontStyle=1;align=center;verticalAlign=top;childLayout=stackLayout;horizontal=1;startSize=26;horizontalStack=0;resizeParent=1;resizeParentMax=0;resizeLast=0;collapsible=1;marginBottom=0;whiteSpace=wrap;html=1;" parent="1" vertex="1">
          <mxGeometry x="30" y="30" width="230" height="60" as="geometry" />
        </mxCell>
        <mxCell id="lJhDyDG1HW2excrZ2yXK-10" value="+ createBird() : virtual vector&amp;lt;Bird*&amp;gt;" style="text;strokeColor=none;fillColor=none;align=left;verticalAlign=top;spacingLeft=4;spacingRight=4;overflow=hidden;rotatable=0;points=[[0,0.5],[1,0.5]];portConstraint=eastwest;whiteSpace=wrap;html=1;" parent="lJhDyDG1HW2excrZ2yXK-9" vertex="1">
          <mxGeometry y="26" width="230" height="34" as="geometry" />
        </mxCell>
        <mxCell id="lJhDyDG1HW2excrZ2yXK-11" value="UnovaRegionFactory" style="swimlane;fontStyle=1;align=center;verticalAlign=top;childLayout=stackLayout;horizontal=1;startSize=26;horizontalStack=0;resizeParent=1;resizeParentMax=0;resizeLast=0;collapsible=1;marginBottom=0;whiteSpace=wrap;html=1;" parent="1" vertex="1">
          <mxGeometry x="-310" y="30" width="230" height="60" as="geometry" />
        </mxCell>
        <mxCell id="lJhDyDG1HW2excrZ2yXK-12" value="+ createBird() : virtual vector&amp;lt;Bird*&amp;gt;" style="text;strokeColor=none;fillColor=none;align=left;verticalAlign=top;spacingLeft=4;spacingRight=4;overflow=hidden;rotatable=0;points=[[0,0.5],[1,0.5]];portConstraint=eastwest;whiteSpace=wrap;html=1;" parent="lJhDyDG1HW2excrZ2yXK-11" vertex="1">
          <mxGeometry y="26" width="230" height="34" as="geometry" />
        </mxCell>
        <mxCell id="lJhDyDG1HW2excrZ2yXK-14" value="" style="endArrow=diamondThin;endFill=1;endSize=24;html=1;rounded=0;entryX=-0.026;entryY=0.131;entryDx=0;entryDy=0;exitX=1.013;exitY=0.078;exitDx=0;exitDy=0;exitPerimeter=0;edgeStyle=elbowEdgeStyle;endFillColor=#FFFFFF;entryPerimeter=0;" parent="1" source="lJhDyDG1HW2excrZ2yXK-8" target="lJhDyDG1HW2excrZ2yXK-4" edge="1">
          <mxGeometry width="160" relative="1" as="geometry">
            <mxPoint x="709" y="181" as="sourcePoint" />
            <mxPoint x="390" y="100" as="targetPoint" />
          </mxGeometry>
        </mxCell>
        <mxCell id="lJhDyDG1HW2excrZ2yXK-105" style="edgeStyle=orthogonalEdgeStyle;rounded=0;orthogonalLoop=1;jettySize=auto;html=1;entryX=0.5;entryY=0;entryDx=0;entryDy=0;endArrow=diamondThin;endFill=1;endSize=24;endFillColor=#FFFFFF;" parent="1" source="lJhDyDG1HW2excrZ2yXK-15" target="lJhDyDG1HW2excrZ2yXK-40" edge="1">
          <mxGeometry relative="1" as="geometry" />
        </mxCell>
        <mxCell id="lJhDyDG1HW2excrZ2yXK-15" value="&lt;i&gt;Bird&lt;/i&gt;" style="swimlane;fontStyle=1;align=center;verticalAlign=top;childLayout=stackLayout;horizontal=1;startSize=26;horizontalStack=0;resizeParent=1;resizeParentMax=0;resizeLast=0;collapsible=1;marginBottom=0;whiteSpace=wrap;html=1;" parent="1" vertex="1">
          <mxGeometry x="-110" y="320" width="180" height="190" as="geometry" />
        </mxCell>
        <mxCell id="lJhDyDG1HW2excrZ2yXK-16" value="+ name : string&lt;div&gt;+ region : string&lt;/div&gt;&lt;div&gt;+ activity : SeasonalActivity*&lt;/div&gt;" style="text;strokeColor=none;fillColor=none;align=left;verticalAlign=top;spacingLeft=4;spacingRight=4;overflow=hidden;rotatable=0;points=[[0,0.5],[1,0.5]];portConstraint=eastwest;whiteSpace=wrap;html=1;" parent="lJhDyDG1HW2excrZ2yXK-15" vertex="1">
          <mxGeometry y="26" width="180" height="64" as="geometry" />
        </mxCell>
        <mxCell id="lJhDyDG1HW2excrZ2yXK-17" value="" style="line;strokeWidth=1;fillColor=none;align=left;verticalAlign=middle;spacingTop=-1;spacingLeft=3;spacingRight=3;rotatable=0;labelPosition=right;points=[];portConstraint=eastwest;strokeColor=inherit;" parent="lJhDyDG1HW2excrZ2yXK-15" vertex="1">
          <mxGeometry y="90" width="180" height="8" as="geometry" />
        </mxCell>
        <mxCell id="lJhDyDG1HW2excrZ2yXK-18" value="&lt;div&gt;+ Bird()&amp;nbsp;&lt;div&gt;+ ~Bird() : virtual&lt;/div&gt;&lt;div&gt;+ setActivity() : void&lt;/div&gt;&lt;div&gt;+ performActivity() : void&lt;/div&gt;&lt;div&gt;+ allActivities() :&amp;nbsp;&lt;span style=&quot;background-color: initial;&quot;&gt;virtual void&lt;/span&gt;&lt;/div&gt;&lt;div&gt;&amp;nbsp;&amp;nbsp;&lt;/div&gt;&lt;/div&gt;" style="text;strokeColor=none;fillColor=none;align=left;verticalAlign=top;spacingLeft=4;spacingRight=4;overflow=hidden;rotatable=0;points=[[0,0.5],[1,0.5]];portConstraint=eastwest;whiteSpace=wrap;html=1;" parent="lJhDyDG1HW2excrZ2yXK-15" vertex="1">
          <mxGeometry y="98" width="180" height="92" as="geometry" />
        </mxCell>
        <mxCell id="lJhDyDG1HW2excrZ2yXK-112" style="edgeStyle=orthogonalEdgeStyle;rounded=0;orthogonalLoop=1;jettySize=auto;html=1;endArrow=none;endFill=0;" parent="1" source="lJhDyDG1HW2excrZ2yXK-19" target="lJhDyDG1HW2excrZ2yXK-27" edge="1">
          <mxGeometry relative="1" as="geometry" />
        </mxCell>
        <mxCell id="lJhDyDG1HW2excrZ2yXK-19" value="KalosianFletchling" style="swimlane;fontStyle=1;align=center;verticalAlign=top;childLayout=stackLayout;horizontal=1;startSize=26;horizontalStack=0;resizeParent=1;resizeParentMax=0;resizeLast=0;collapsible=1;marginBottom=0;whiteSpace=wrap;html=1;" parent="1" vertex="1">
          <mxGeometry x="-520" y="230" width="180" height="158" as="geometry" />
        </mxCell>
        <mxCell id="lJhDyDG1HW2excrZ2yXK-20" value="+ name : string&lt;div&gt;+ region : string&lt;/div&gt;&lt;div&gt;+ activity : SeasonalActivity*&lt;/div&gt;" style="text;strokeColor=none;fillColor=none;align=left;verticalAlign=top;spacingLeft=4;spacingRight=4;overflow=hidden;rotatable=0;points=[[0,0.5],[1,0.5]];portConstraint=eastwest;whiteSpace=wrap;html=1;" parent="lJhDyDG1HW2excrZ2yXK-19" vertex="1">
          <mxGeometry y="26" width="180" height="54" as="geometry" />
        </mxCell>
        <mxCell id="lJhDyDG1HW2excrZ2yXK-21" value="" style="line;strokeWidth=1;fillColor=none;align=left;verticalAlign=middle;spacingTop=-1;spacingLeft=3;spacingRight=3;rotatable=0;labelPosition=right;points=[];portConstraint=eastwest;strokeColor=inherit;" parent="lJhDyDG1HW2excrZ2yXK-19" vertex="1">
          <mxGeometry y="80" width="180" height="8" as="geometry" />
        </mxCell>
        <mxCell id="lJhDyDG1HW2excrZ2yXK-22" value="+ KalosianFletchling()&amp;nbsp;&lt;div&gt;+ ~KalosianFletchling(): virtual&lt;/div&gt;&lt;div&gt;+ allActivities() : v&lt;span style=&quot;background-color: initial;&quot;&gt;oid&lt;/span&gt;&lt;/div&gt;&lt;div&gt;&amp;nbsp;&amp;nbsp;&lt;/div&gt;" style="text;strokeColor=none;fillColor=none;align=left;verticalAlign=top;spacingLeft=4;spacingRight=4;overflow=hidden;rotatable=0;points=[[0,0.5],[1,0.5]];portConstraint=eastwest;whiteSpace=wrap;html=1;" parent="lJhDyDG1HW2excrZ2yXK-19" vertex="1">
          <mxGeometry y="88" width="180" height="70" as="geometry" />
        </mxCell>
        <mxCell id="lJhDyDG1HW2excrZ2yXK-111" style="edgeStyle=orthogonalEdgeStyle;rounded=0;orthogonalLoop=1;jettySize=auto;html=1;endArrow=none;endFill=0;" parent="1" source="lJhDyDG1HW2excrZ2yXK-23" edge="1">
          <mxGeometry relative="1" as="geometry">
            <mxPoint x="-230" y="420" as="targetPoint" />
          </mxGeometry>
        </mxCell>
        <mxCell id="lJhDyDG1HW2excrZ2yXK-23" value="KalosianFletchling" style="swimlane;fontStyle=1;align=center;verticalAlign=top;childLayout=stackLayout;horizontal=1;startSize=26;horizontalStack=0;resizeParent=1;resizeParentMax=0;resizeLast=0;collapsible=1;marginBottom=0;whiteSpace=wrap;html=1;" parent="1" vertex="1">
          <mxGeometry x="-310" y="230" width="160" height="158" as="geometry" />
        </mxCell>
        <mxCell id="lJhDyDG1HW2excrZ2yXK-24" value="+ name : string&lt;div&gt;+ region : string&lt;/div&gt;&lt;div&gt;+ activity : SeasonalActivity*&lt;/div&gt;" style="text;strokeColor=none;fillColor=none;align=left;verticalAlign=top;spacingLeft=4;spacingRight=4;overflow=hidden;rotatable=0;points=[[0,0.5],[1,0.5]];portConstraint=eastwest;whiteSpace=wrap;html=1;" parent="lJhDyDG1HW2excrZ2yXK-23" vertex="1">
          <mxGeometry y="26" width="160" height="54" as="geometry" />
        </mxCell>
        <mxCell id="lJhDyDG1HW2excrZ2yXK-25" value="" style="line;strokeWidth=1;fillColor=none;align=left;verticalAlign=middle;spacingTop=-1;spacingLeft=3;spacingRight=3;rotatable=0;labelPosition=right;points=[];portConstraint=eastwest;strokeColor=inherit;" parent="lJhDyDG1HW2excrZ2yXK-23" vertex="1">
          <mxGeometry y="80" width="160" height="8" as="geometry" />
        </mxCell>
        <mxCell id="lJhDyDG1HW2excrZ2yXK-26" value="+ KalosianRufflet()&amp;nbsp;&lt;div&gt;+ ~KalosianRufflet(): virtual&lt;/div&gt;&lt;div&gt;+ allActivities() : v&lt;span style=&quot;background-color: initial;&quot;&gt;oid&lt;/span&gt;&lt;/div&gt;&lt;div&gt;&amp;nbsp;&amp;nbsp;&lt;/div&gt;" style="text;strokeColor=none;fillColor=none;align=left;verticalAlign=top;spacingLeft=4;spacingRight=4;overflow=hidden;rotatable=0;points=[[0,0.5],[1,0.5]];portConstraint=eastwest;whiteSpace=wrap;html=1;" parent="lJhDyDG1HW2excrZ2yXK-23" vertex="1">
          <mxGeometry y="88" width="160" height="70" as="geometry" />
        </mxCell>
        <mxCell id="lJhDyDG1HW2excrZ2yXK-27" value="UnovanFletchling" style="swimlane;fontStyle=1;align=center;verticalAlign=top;childLayout=stackLayout;horizontal=1;startSize=26;horizontalStack=0;resizeParent=1;resizeParentMax=0;resizeLast=0;collapsible=1;marginBottom=0;whiteSpace=wrap;html=1;" parent="1" vertex="1">
          <mxGeometry x="-520" y="440" width="180" height="158" as="geometry" />
        </mxCell>
        <mxCell id="lJhDyDG1HW2excrZ2yXK-28" value="+ name : string&lt;div&gt;+ region : string&lt;/div&gt;&lt;div&gt;+ activity : SeasonalActivity*&lt;/div&gt;" style="text;strokeColor=none;fillColor=none;align=left;verticalAlign=top;spacingLeft=4;spacingRight=4;overflow=hidden;rotatable=0;points=[[0,0.5],[1,0.5]];portConstraint=eastwest;whiteSpace=wrap;html=1;" parent="lJhDyDG1HW2excrZ2yXK-27" vertex="1">
          <mxGeometry y="26" width="180" height="54" as="geometry" />
        </mxCell>
        <mxCell id="lJhDyDG1HW2excrZ2yXK-29" value="" style="line;strokeWidth=1;fillColor=none;align=left;verticalAlign=middle;spacingTop=-1;spacingLeft=3;spacingRight=3;rotatable=0;labelPosition=right;points=[];portConstraint=eastwest;strokeColor=inherit;" parent="lJhDyDG1HW2excrZ2yXK-27" vertex="1">
          <mxGeometry y="80" width="180" height="8" as="geometry" />
        </mxCell>
        <mxCell id="lJhDyDG1HW2excrZ2yXK-30" value="+ UnovanFletchling()&amp;nbsp;&lt;div&gt;+ ~UnovanFletchling():&amp;nbsp;&amp;nbsp;&amp;nbsp; virtual&lt;/div&gt;&lt;div&gt;&lt;span style=&quot;background-color: initial;&quot;&gt;+ allActivities() : v&lt;/span&gt;&lt;span style=&quot;background-color: initial;&quot;&gt;oid&lt;/span&gt;&lt;/div&gt;&lt;div&gt;&amp;nbsp;&amp;nbsp;&lt;br&gt;&lt;/div&gt;" style="text;strokeColor=none;fillColor=none;align=left;verticalAlign=top;spacingLeft=4;spacingRight=4;overflow=hidden;rotatable=0;points=[[0,0.5],[1,0.5]];portConstraint=eastwest;whiteSpace=wrap;html=1;" parent="lJhDyDG1HW2excrZ2yXK-27" vertex="1">
          <mxGeometry y="88" width="180" height="70" as="geometry" />
        </mxCell>
        <mxCell id="lJhDyDG1HW2excrZ2yXK-35" value="" style="endArrow=diamondThin;endFill=1;endSize=24;html=1;rounded=0;edgeStyle=orthogonalEdgeStyle;endFillColor=#FFFFFF;exitX=0.371;exitY=0.013;exitDx=0;exitDy=0;exitPerimeter=0;entryX=0.601;entryY=1.018;entryDx=0;entryDy=0;entryPerimeter=0;" parent="1" source="lJhDyDG1HW2excrZ2yXK-15" target="lJhDyDG1HW2excrZ2yXK-8" edge="1">
          <mxGeometry width="160" relative="1" as="geometry">
            <mxPoint x="-40" y="230" as="sourcePoint" />
            <mxPoint x="-40" y="230" as="targetPoint" />
          </mxGeometry>
        </mxCell>
        <mxCell id="lJhDyDG1HW2excrZ2yXK-39" value="" style="endArrow=block;endSize=16;endFill=0;html=1;rounded=0;edgeStyle=elbowEdgeStyle;elbow=vertical;entryX=0.5;entryY=0;entryDx=0;entryDy=0;" parent="1" target="lJhDyDG1HW2excrZ2yXK-5" edge="1">
          <mxGeometry width="160" relative="1" as="geometry">
            <mxPoint x="-15" y="60" as="sourcePoint" />
            <mxPoint x="328" y="90" as="targetPoint" />
          </mxGeometry>
        </mxCell>
        <mxCell id="lJhDyDG1HW2excrZ2yXK-40" value="&lt;i&gt;SeasonalActivity&lt;/i&gt;" style="swimlane;fontStyle=1;align=center;verticalAlign=top;childLayout=stackLayout;horizontal=1;startSize=26;horizontalStack=0;resizeParent=1;resizeParentMax=0;resizeLast=0;collapsible=1;marginBottom=0;whiteSpace=wrap;html=1;" parent="1" vertex="1">
          <mxGeometry x="-60" y="600" width="170" height="60" as="geometry" />
        </mxCell>
        <mxCell id="lJhDyDG1HW2excrZ2yXK-43" value="+ performActivity : virtual void" style="text;strokeColor=none;fillColor=none;align=left;verticalAlign=top;spacingLeft=4;spacingRight=4;overflow=hidden;rotatable=0;points=[[0,0.5],[1,0.5]];portConstraint=eastwest;whiteSpace=wrap;html=1;" parent="lJhDyDG1HW2excrZ2yXK-40" vertex="1">
          <mxGeometry y="26" width="170" height="34" as="geometry" />
        </mxCell>
        <mxCell id="lJhDyDG1HW2excrZ2yXK-134" style="edgeStyle=orthogonalEdgeStyle;rounded=0;orthogonalLoop=1;jettySize=auto;html=1;endArrow=none;endFill=0;" parent="1" source="lJhDyDG1HW2excrZ2yXK-44" edge="1">
          <mxGeometry relative="1" as="geometry">
            <mxPoint x="205" y="800" as="targetPoint" />
          </mxGeometry>
        </mxCell>
        <mxCell id="lJhDyDG1HW2excrZ2yXK-44" value="KalosainFletchlingSpring" style="swimlane;fontStyle=1;align=center;verticalAlign=top;childLayout=stackLayout;horizontal=1;startSize=26;horizontalStack=0;resizeParent=1;resizeParentMax=0;resizeLast=0;collapsible=1;marginBottom=0;whiteSpace=wrap;html=1;" parent="1" vertex="1">
          <mxGeometry x="100" y="840" width="210" height="130" as="geometry" />
        </mxCell>
        <mxCell id="lJhDyDG1HW2excrZ2yXK-45" value="+ nest : Nest&lt;div&gt;+ nestbuilder : NestBuilder*&lt;/div&gt;" style="text;strokeColor=none;fillColor=none;align=left;verticalAlign=top;spacingLeft=4;spacingRight=4;overflow=hidden;rotatable=0;points=[[0,0.5],[1,0.5]];portConstraint=eastwest;whiteSpace=wrap;html=1;" parent="lJhDyDG1HW2excrZ2yXK-44" vertex="1">
          <mxGeometry y="26" width="210" height="44" as="geometry" />
        </mxCell>
        <mxCell id="lJhDyDG1HW2excrZ2yXK-46" value="" style="line;strokeWidth=1;fillColor=none;align=left;verticalAlign=middle;spacingTop=-1;spacingLeft=3;spacingRight=3;rotatable=0;labelPosition=right;points=[];portConstraint=eastwest;strokeColor=inherit;" parent="lJhDyDG1HW2excrZ2yXK-44" vertex="1">
          <mxGeometry y="70" width="210" height="8" as="geometry" />
        </mxCell>
        <mxCell id="lJhDyDG1HW2excrZ2yXK-47" value="&lt;div&gt;+ KalosianFletchling()&amp;nbsp;&lt;/div&gt;+ performActivity : virtual void" style="text;strokeColor=none;fillColor=none;align=left;verticalAlign=top;spacingLeft=4;spacingRight=4;overflow=hidden;rotatable=0;points=[[0,0.5],[1,0.5]];portConstraint=eastwest;whiteSpace=wrap;html=1;" parent="lJhDyDG1HW2excrZ2yXK-44" vertex="1">
          <mxGeometry y="78" width="210" height="52" as="geometry" />
        </mxCell>
        <mxCell id="zezI0oYd4fHwWdlwXRld-3" style="edgeStyle=orthogonalEdgeStyle;rounded=0;orthogonalLoop=1;jettySize=auto;html=1;endArrow=none;endFill=0;" edge="1" parent="1" source="lJhDyDG1HW2excrZ2yXK-48">
          <mxGeometry relative="1" as="geometry">
            <mxPoint x="30" y="720" as="targetPoint" />
          </mxGeometry>
        </mxCell>
        <mxCell id="lJhDyDG1HW2excrZ2yXK-48" value="&lt;i&gt;SeasonalActivityWithNest&lt;/i&gt;" style="swimlane;fontStyle=1;align=center;verticalAlign=top;childLayout=stackLayout;horizontal=1;startSize=26;horizontalStack=0;resizeParent=1;resizeParentMax=0;resizeLast=0;collapsible=1;marginBottom=0;whiteSpace=wrap;html=1;" parent="1" vertex="1">
          <mxGeometry x="130" y="670" width="180" height="100" as="geometry" />
        </mxCell>
        <mxCell id="lJhDyDG1HW2excrZ2yXK-49" value="+ nest : Nest&lt;div&gt;+ nestbuilder : NestBuilder*&lt;/div&gt;" style="text;strokeColor=none;fillColor=none;align=left;verticalAlign=top;spacingLeft=4;spacingRight=4;overflow=hidden;rotatable=0;points=[[0,0.5],[1,0.5]];portConstraint=eastwest;whiteSpace=wrap;html=1;" parent="lJhDyDG1HW2excrZ2yXK-48" vertex="1">
          <mxGeometry y="26" width="180" height="34" as="geometry" />
        </mxCell>
        <mxCell id="lJhDyDG1HW2excrZ2yXK-50" value="" style="line;strokeWidth=1;fillColor=none;align=left;verticalAlign=middle;spacingTop=-1;spacingLeft=3;spacingRight=3;rotatable=0;labelPosition=right;points=[];portConstraint=eastwest;strokeColor=inherit;" parent="lJhDyDG1HW2excrZ2yXK-48" vertex="1">
          <mxGeometry y="60" width="180" height="8" as="geometry" />
        </mxCell>
        <mxCell id="lJhDyDG1HW2excrZ2yXK-51" value="+ performActivity : virtual void" style="text;strokeColor=none;fillColor=none;align=left;verticalAlign=top;spacingLeft=4;spacingRight=4;overflow=hidden;rotatable=0;points=[[0,0.5],[1,0.5]];portConstraint=eastwest;whiteSpace=wrap;html=1;" parent="lJhDyDG1HW2excrZ2yXK-48" vertex="1">
          <mxGeometry y="68" width="180" height="32" as="geometry" />
        </mxCell>
        <mxCell id="lJhDyDG1HW2excrZ2yXK-117" style="edgeStyle=orthogonalEdgeStyle;rounded=0;orthogonalLoop=1;jettySize=auto;html=1;endArrow=none;endFill=0;" parent="1" source="lJhDyDG1HW2excrZ2yXK-53" target="lJhDyDG1HW2excrZ2yXK-69" edge="1">
          <mxGeometry relative="1" as="geometry" />
        </mxCell>
        <mxCell id="lJhDyDG1HW2excrZ2yXK-53" value="UnovanFletchlingSummer" style="swimlane;fontStyle=1;align=center;verticalAlign=top;childLayout=stackLayout;horizontal=1;startSize=26;horizontalStack=0;resizeParent=1;resizeParentMax=0;resizeLast=0;collapsible=1;marginBottom=0;whiteSpace=wrap;html=1;" parent="1" vertex="1">
          <mxGeometry x="-620" y="670" width="170" height="60" as="geometry" />
        </mxCell>
        <mxCell id="lJhDyDG1HW2excrZ2yXK-54" value="+ performActivity : virtual void" style="text;strokeColor=none;fillColor=none;align=left;verticalAlign=top;spacingLeft=4;spacingRight=4;overflow=hidden;rotatable=0;points=[[0,0.5],[1,0.5]];portConstraint=eastwest;whiteSpace=wrap;html=1;" parent="lJhDyDG1HW2excrZ2yXK-53" vertex="1">
          <mxGeometry y="26" width="170" height="34" as="geometry" />
        </mxCell>
        <mxCell id="lJhDyDG1HW2excrZ2yXK-115" style="edgeStyle=orthogonalEdgeStyle;rounded=0;orthogonalLoop=1;jettySize=auto;html=1;endArrow=none;endFill=0;" parent="1" source="lJhDyDG1HW2excrZ2yXK-55" target="lJhDyDG1HW2excrZ2yXK-71" edge="1">
          <mxGeometry relative="1" as="geometry" />
        </mxCell>
        <mxCell id="lJhDyDG1HW2excrZ2yXK-55" value="KalosianRuffletSummer" style="swimlane;fontStyle=1;align=center;verticalAlign=top;childLayout=stackLayout;horizontal=1;startSize=26;horizontalStack=0;resizeParent=1;resizeParentMax=0;resizeLast=0;collapsible=1;marginBottom=0;whiteSpace=wrap;html=1;" parent="1" vertex="1">
          <mxGeometry x="-420" y="670" width="170" height="60" as="geometry" />
        </mxCell>
        <mxCell id="lJhDyDG1HW2excrZ2yXK-56" value="+ performActivity : virtual void" style="text;strokeColor=none;fillColor=none;align=left;verticalAlign=top;spacingLeft=4;spacingRight=4;overflow=hidden;rotatable=0;points=[[0,0.5],[1,0.5]];portConstraint=eastwest;whiteSpace=wrap;html=1;" parent="lJhDyDG1HW2excrZ2yXK-55" vertex="1">
          <mxGeometry y="26" width="170" height="34" as="geometry" />
        </mxCell>
        <mxCell id="lJhDyDG1HW2excrZ2yXK-106" style="edgeStyle=orthogonalEdgeStyle;rounded=0;orthogonalLoop=1;jettySize=auto;html=1;entryX=0.52;entryY=0.993;entryDx=0;entryDy=0;entryPerimeter=0;endArrow=block;endFill=1;jumpSize=24;endSize=16;endFillColor=#FFFFFF;strokeWidth=1;" parent="1" edge="1">
          <mxGeometry relative="1" as="geometry">
            <mxPoint x="28.40000000000009" y="660.0020000000001" as="targetPoint" />
            <mxPoint x="-740" y="761" as="sourcePoint" />
          </mxGeometry>
        </mxCell>
        <mxCell id="lJhDyDG1HW2excrZ2yXK-113" style="edgeStyle=orthogonalEdgeStyle;rounded=0;orthogonalLoop=1;jettySize=auto;html=1;endArrow=none;endFill=0;" parent="1" source="lJhDyDG1HW2excrZ2yXK-57" target="lJhDyDG1HW2excrZ2yXK-73" edge="1">
          <mxGeometry relative="1" as="geometry" />
        </mxCell>
        <mxCell id="lJhDyDG1HW2excrZ2yXK-57" value="KalosianFletchlingSummer" style="swimlane;fontStyle=1;align=center;verticalAlign=top;childLayout=stackLayout;horizontal=1;startSize=26;horizontalStack=0;resizeParent=1;resizeParentMax=0;resizeLast=0;collapsible=1;marginBottom=0;whiteSpace=wrap;html=1;" parent="1" vertex="1">
          <mxGeometry x="-220" y="670" width="170" height="60" as="geometry" />
        </mxCell>
        <mxCell id="lJhDyDG1HW2excrZ2yXK-58" value="+ performActivity : virtual void" style="text;strokeColor=none;fillColor=none;align=left;verticalAlign=top;spacingLeft=4;spacingRight=4;overflow=hidden;rotatable=0;points=[[0,0.5],[1,0.5]];portConstraint=eastwest;whiteSpace=wrap;html=1;" parent="lJhDyDG1HW2excrZ2yXK-57" vertex="1">
          <mxGeometry y="26" width="170" height="34" as="geometry" />
        </mxCell>
        <mxCell id="lJhDyDG1HW2excrZ2yXK-118" style="edgeStyle=orthogonalEdgeStyle;rounded=0;orthogonalLoop=1;jettySize=auto;html=1;endArrow=none;endFill=0;" parent="1" source="lJhDyDG1HW2excrZ2yXK-65" target="lJhDyDG1HW2excrZ2yXK-75" edge="1">
          <mxGeometry relative="1" as="geometry" />
        </mxCell>
        <mxCell id="lJhDyDG1HW2excrZ2yXK-65" value="UnovanRuffletSummer" style="swimlane;fontStyle=1;align=center;verticalAlign=top;childLayout=stackLayout;horizontal=1;startSize=26;horizontalStack=0;resizeParent=1;resizeParentMax=0;resizeLast=0;collapsible=1;marginBottom=0;whiteSpace=wrap;html=1;" parent="1" vertex="1">
          <mxGeometry x="-820" y="670" width="170" height="60" as="geometry" />
        </mxCell>
        <mxCell id="lJhDyDG1HW2excrZ2yXK-66" value="+ performActivity : virtual void" style="text;strokeColor=none;fillColor=none;align=left;verticalAlign=top;spacingLeft=4;spacingRight=4;overflow=hidden;rotatable=0;points=[[0,0.5],[1,0.5]];portConstraint=eastwest;whiteSpace=wrap;html=1;" parent="lJhDyDG1HW2excrZ2yXK-65" vertex="1">
          <mxGeometry y="26" width="170" height="34" as="geometry" />
        </mxCell>
        <mxCell id="lJhDyDG1HW2excrZ2yXK-69" value="UnovanFletchlingFall" style="swimlane;fontStyle=1;align=center;verticalAlign=top;childLayout=stackLayout;horizontal=1;startSize=26;horizontalStack=0;resizeParent=1;resizeParentMax=0;resizeLast=0;collapsible=1;marginBottom=0;whiteSpace=wrap;html=1;" parent="1" vertex="1">
          <mxGeometry x="-620" y="780" width="170" height="60" as="geometry" />
        </mxCell>
        <mxCell id="lJhDyDG1HW2excrZ2yXK-70" value="+ performActivity : virtual void" style="text;strokeColor=none;fillColor=none;align=left;verticalAlign=top;spacingLeft=4;spacingRight=4;overflow=hidden;rotatable=0;points=[[0,0.5],[1,0.5]];portConstraint=eastwest;whiteSpace=wrap;html=1;" parent="lJhDyDG1HW2excrZ2yXK-69" vertex="1">
          <mxGeometry y="26" width="170" height="34" as="geometry" />
        </mxCell>
        <mxCell id="lJhDyDG1HW2excrZ2yXK-71" value="KalosianRuffletFall" style="swimlane;fontStyle=1;align=center;verticalAlign=top;childLayout=stackLayout;horizontal=1;startSize=26;horizontalStack=0;resizeParent=1;resizeParentMax=0;resizeLast=0;collapsible=1;marginBottom=0;whiteSpace=wrap;html=1;" parent="1" vertex="1">
          <mxGeometry x="-420" y="780" width="170" height="60" as="geometry" />
        </mxCell>
        <mxCell id="lJhDyDG1HW2excrZ2yXK-72" value="+ performActivity : virtual void" style="text;strokeColor=none;fillColor=none;align=left;verticalAlign=top;spacingLeft=4;spacingRight=4;overflow=hidden;rotatable=0;points=[[0,0.5],[1,0.5]];portConstraint=eastwest;whiteSpace=wrap;html=1;" parent="lJhDyDG1HW2excrZ2yXK-71" vertex="1">
          <mxGeometry y="26" width="170" height="34" as="geometry" />
        </mxCell>
        <mxCell id="lJhDyDG1HW2excrZ2yXK-73" value="KalosianFletchlingFall" style="swimlane;fontStyle=1;align=center;verticalAlign=top;childLayout=stackLayout;horizontal=1;startSize=26;horizontalStack=0;resizeParent=1;resizeParentMax=0;resizeLast=0;collapsible=1;marginBottom=0;whiteSpace=wrap;html=1;" parent="1" vertex="1">
          <mxGeometry x="-220" y="780" width="170" height="60" as="geometry" />
        </mxCell>
        <mxCell id="lJhDyDG1HW2excrZ2yXK-74" value="+ performActivity : virtual void" style="text;strokeColor=none;fillColor=none;align=left;verticalAlign=top;spacingLeft=4;spacingRight=4;overflow=hidden;rotatable=0;points=[[0,0.5],[1,0.5]];portConstraint=eastwest;whiteSpace=wrap;html=1;" parent="lJhDyDG1HW2excrZ2yXK-73" vertex="1">
          <mxGeometry y="26" width="170" height="34" as="geometry" />
        </mxCell>
        <mxCell id="lJhDyDG1HW2excrZ2yXK-75" value="UnovanRuffletFall" style="swimlane;fontStyle=1;align=center;verticalAlign=top;childLayout=stackLayout;horizontal=1;startSize=26;horizontalStack=0;resizeParent=1;resizeParentMax=0;resizeLast=0;collapsible=1;marginBottom=0;whiteSpace=wrap;html=1;" parent="1" vertex="1">
          <mxGeometry x="-820" y="780" width="170" height="60" as="geometry" />
        </mxCell>
        <mxCell id="lJhDyDG1HW2excrZ2yXK-76" value="+ performActivity : virtual void" style="text;strokeColor=none;fillColor=none;align=left;verticalAlign=top;spacingLeft=4;spacingRight=4;overflow=hidden;rotatable=0;points=[[0,0.5],[1,0.5]];portConstraint=eastwest;whiteSpace=wrap;html=1;" parent="lJhDyDG1HW2excrZ2yXK-75" vertex="1">
          <mxGeometry y="26" width="170" height="34" as="geometry" />
        </mxCell>
        <mxCell id="lJhDyDG1HW2excrZ2yXK-120" style="edgeStyle=orthogonalEdgeStyle;rounded=0;orthogonalLoop=1;jettySize=auto;html=1;endArrow=none;endFill=0;" parent="1" source="lJhDyDG1HW2excrZ2yXK-77" edge="1">
          <mxGeometry relative="1" as="geometry">
            <mxPoint x="-535" y="960" as="targetPoint" />
          </mxGeometry>
        </mxCell>
        <mxCell id="lJhDyDG1HW2excrZ2yXK-77" value="UnovanFletchlingWinter" style="swimlane;fontStyle=1;align=center;verticalAlign=top;childLayout=stackLayout;horizontal=1;startSize=26;horizontalStack=0;resizeParent=1;resizeParentMax=0;resizeLast=0;collapsible=1;marginBottom=0;whiteSpace=wrap;html=1;" parent="1" vertex="1">
          <mxGeometry x="-620" y="880" width="170" height="60" as="geometry" />
        </mxCell>
        <mxCell id="lJhDyDG1HW2excrZ2yXK-78" value="+ performActivity : virtual void" style="text;strokeColor=none;fillColor=none;align=left;verticalAlign=top;spacingLeft=4;spacingRight=4;overflow=hidden;rotatable=0;points=[[0,0.5],[1,0.5]];portConstraint=eastwest;whiteSpace=wrap;html=1;" parent="lJhDyDG1HW2excrZ2yXK-77" vertex="1">
          <mxGeometry y="26" width="170" height="34" as="geometry" />
        </mxCell>
        <mxCell id="lJhDyDG1HW2excrZ2yXK-121" style="edgeStyle=orthogonalEdgeStyle;rounded=0;orthogonalLoop=1;jettySize=auto;html=1;endArrow=none;endFill=0;" parent="1" source="lJhDyDG1HW2excrZ2yXK-79" edge="1">
          <mxGeometry relative="1" as="geometry">
            <mxPoint x="-340" y="960" as="targetPoint" />
          </mxGeometry>
        </mxCell>
        <mxCell id="lJhDyDG1HW2excrZ2yXK-79" value="KalosianRuffletWinter" style="swimlane;fontStyle=1;align=center;verticalAlign=top;childLayout=stackLayout;horizontal=1;startSize=26;horizontalStack=0;resizeParent=1;resizeParentMax=0;resizeLast=0;collapsible=1;marginBottom=0;whiteSpace=wrap;html=1;" parent="1" vertex="1">
          <mxGeometry x="-420" y="880" width="170" height="60" as="geometry" />
        </mxCell>
        <mxCell id="lJhDyDG1HW2excrZ2yXK-80" value="+ performActivity : virtual void" style="text;strokeColor=none;fillColor=none;align=left;verticalAlign=top;spacingLeft=4;spacingRight=4;overflow=hidden;rotatable=0;points=[[0,0.5],[1,0.5]];portConstraint=eastwest;whiteSpace=wrap;html=1;" parent="lJhDyDG1HW2excrZ2yXK-79" vertex="1">
          <mxGeometry y="26" width="170" height="34" as="geometry" />
        </mxCell>
        <mxCell id="lJhDyDG1HW2excrZ2yXK-122" style="edgeStyle=orthogonalEdgeStyle;rounded=0;orthogonalLoop=1;jettySize=auto;html=1;endArrow=none;endFill=0;" parent="1" source="lJhDyDG1HW2excrZ2yXK-81" edge="1">
          <mxGeometry relative="1" as="geometry">
            <mxPoint x="-135" y="960" as="targetPoint" />
          </mxGeometry>
        </mxCell>
        <mxCell id="lJhDyDG1HW2excrZ2yXK-81" value="KalosianFletchlingWinter" style="swimlane;fontStyle=1;align=center;verticalAlign=top;childLayout=stackLayout;horizontal=1;startSize=26;horizontalStack=0;resizeParent=1;resizeParentMax=0;resizeLast=0;collapsible=1;marginBottom=0;whiteSpace=wrap;html=1;" parent="1" vertex="1">
          <mxGeometry x="-220" y="880" width="170" height="60" as="geometry" />
        </mxCell>
        <mxCell id="lJhDyDG1HW2excrZ2yXK-82" value="+ performActivity : virtual void" style="text;strokeColor=none;fillColor=none;align=left;verticalAlign=top;spacingLeft=4;spacingRight=4;overflow=hidden;rotatable=0;points=[[0,0.5],[1,0.5]];portConstraint=eastwest;whiteSpace=wrap;html=1;" parent="lJhDyDG1HW2excrZ2yXK-81" vertex="1">
          <mxGeometry y="26" width="170" height="34" as="geometry" />
        </mxCell>
        <mxCell id="lJhDyDG1HW2excrZ2yXK-119" style="edgeStyle=orthogonalEdgeStyle;rounded=0;orthogonalLoop=1;jettySize=auto;html=1;endArrow=none;endFill=0;" parent="1" source="lJhDyDG1HW2excrZ2yXK-83" edge="1">
          <mxGeometry relative="1" as="geometry">
            <mxPoint x="-735" y="965" as="targetPoint" />
          </mxGeometry>
        </mxCell>
        <mxCell id="lJhDyDG1HW2excrZ2yXK-83" value="UnovanRuffletWinter" style="swimlane;fontStyle=1;align=center;verticalAlign=top;childLayout=stackLayout;horizontal=1;startSize=26;horizontalStack=0;resizeParent=1;resizeParentMax=0;resizeLast=0;collapsible=1;marginBottom=0;whiteSpace=wrap;html=1;" parent="1" vertex="1">
          <mxGeometry x="-820" y="880" width="170" height="60" as="geometry" />
        </mxCell>
        <mxCell id="lJhDyDG1HW2excrZ2yXK-84" value="+ performActivity : virtual void" style="text;strokeColor=none;fillColor=none;align=left;verticalAlign=top;spacingLeft=4;spacingRight=4;overflow=hidden;rotatable=0;points=[[0,0.5],[1,0.5]];portConstraint=eastwest;whiteSpace=wrap;html=1;" parent="lJhDyDG1HW2excrZ2yXK-83" vertex="1">
          <mxGeometry y="26" width="170" height="34" as="geometry" />
        </mxCell>
        <mxCell id="lJhDyDG1HW2excrZ2yXK-85" value="KalosianRuffletSpring" style="swimlane;fontStyle=1;align=center;verticalAlign=top;childLayout=stackLayout;horizontal=1;startSize=26;horizontalStack=0;resizeParent=1;resizeParentMax=0;resizeLast=0;collapsible=1;marginBottom=0;whiteSpace=wrap;html=1;" parent="1" vertex="1">
          <mxGeometry x="330" y="840" width="210" height="130" as="geometry" />
        </mxCell>
        <mxCell id="lJhDyDG1HW2excrZ2yXK-86" value="+ nest : Nest&lt;div&gt;+ nestbuilder : NestBuilder*&lt;/div&gt;" style="text;strokeColor=none;fillColor=none;align=left;verticalAlign=top;spacingLeft=4;spacingRight=4;overflow=hidden;rotatable=0;points=[[0,0.5],[1,0.5]];portConstraint=eastwest;whiteSpace=wrap;html=1;" parent="lJhDyDG1HW2excrZ2yXK-85" vertex="1">
          <mxGeometry y="26" width="210" height="44" as="geometry" />
        </mxCell>
        <mxCell id="lJhDyDG1HW2excrZ2yXK-87" value="" style="line;strokeWidth=1;fillColor=none;align=left;verticalAlign=middle;spacingTop=-1;spacingLeft=3;spacingRight=3;rotatable=0;labelPosition=right;points=[];portConstraint=eastwest;strokeColor=inherit;" parent="lJhDyDG1HW2excrZ2yXK-85" vertex="1">
          <mxGeometry y="70" width="210" height="8" as="geometry" />
        </mxCell>
        <mxCell id="lJhDyDG1HW2excrZ2yXK-88" value="&lt;div&gt;+ UnovanRufflet()&amp;nbsp;&lt;/div&gt;+ performActivity : virtual void" style="text;strokeColor=none;fillColor=none;align=left;verticalAlign=top;spacingLeft=4;spacingRight=4;overflow=hidden;rotatable=0;points=[[0,0.5],[1,0.5]];portConstraint=eastwest;whiteSpace=wrap;html=1;" parent="lJhDyDG1HW2excrZ2yXK-85" vertex="1">
          <mxGeometry y="78" width="210" height="52" as="geometry" />
        </mxCell>
        <mxCell id="lJhDyDG1HW2excrZ2yXK-135" style="edgeStyle=orthogonalEdgeStyle;rounded=0;orthogonalLoop=1;jettySize=auto;html=1;endArrow=none;endFill=0;" parent="1" source="lJhDyDG1HW2excrZ2yXK-89" edge="1">
          <mxGeometry relative="1" as="geometry">
            <mxPoint x="675" y="800" as="targetPoint" />
          </mxGeometry>
        </mxCell>
        <mxCell id="rgclIkUoX49irN9JSvik-5" style="edgeStyle=orthogonalEdgeStyle;rounded=0;orthogonalLoop=1;jettySize=auto;html=1;endArrow=none;endFill=0;" parent="1" source="lJhDyDG1HW2excrZ2yXK-89" target="rgclIkUoX49irN9JSvik-1" edge="1">
          <mxGeometry relative="1" as="geometry" />
        </mxCell>
        <mxCell id="lJhDyDG1HW2excrZ2yXK-89" value="UnovanFletchlingSpring" style="swimlane;fontStyle=1;align=center;verticalAlign=top;childLayout=stackLayout;horizontal=1;startSize=26;horizontalStack=0;resizeParent=1;resizeParentMax=0;resizeLast=0;collapsible=1;marginBottom=0;whiteSpace=wrap;html=1;" parent="1" vertex="1">
          <mxGeometry x="570" y="840" width="210" height="130" as="geometry" />
        </mxCell>
        <mxCell id="lJhDyDG1HW2excrZ2yXK-90" value="+ nest : Nest&lt;div&gt;+ nestbuilder : NestBuilder*&lt;/div&gt;" style="text;strokeColor=none;fillColor=none;align=left;verticalAlign=top;spacingLeft=4;spacingRight=4;overflow=hidden;rotatable=0;points=[[0,0.5],[1,0.5]];portConstraint=eastwest;whiteSpace=wrap;html=1;" parent="lJhDyDG1HW2excrZ2yXK-89" vertex="1">
          <mxGeometry y="26" width="210" height="44" as="geometry" />
        </mxCell>
        <mxCell id="lJhDyDG1HW2excrZ2yXK-91" value="" style="line;strokeWidth=1;fillColor=none;align=left;verticalAlign=middle;spacingTop=-1;spacingLeft=3;spacingRight=3;rotatable=0;labelPosition=right;points=[];portConstraint=eastwest;strokeColor=inherit;" parent="lJhDyDG1HW2excrZ2yXK-89" vertex="1">
          <mxGeometry y="70" width="210" height="8" as="geometry" />
        </mxCell>
        <mxCell id="lJhDyDG1HW2excrZ2yXK-92" value="&lt;div&gt;+&amp;nbsp;UnovanFletchling() &lt;br&gt;&lt;/div&gt;+ performActivity : virtual void" style="text;strokeColor=none;fillColor=none;align=left;verticalAlign=top;spacingLeft=4;spacingRight=4;overflow=hidden;rotatable=0;points=[[0,0.5],[1,0.5]];portConstraint=eastwest;whiteSpace=wrap;html=1;" parent="lJhDyDG1HW2excrZ2yXK-89" vertex="1">
          <mxGeometry y="78" width="210" height="52" as="geometry" />
        </mxCell>
        <mxCell id="lJhDyDG1HW2excrZ2yXK-93" value="Nest" style="swimlane;fontStyle=1;align=center;verticalAlign=top;childLayout=stackLayout;horizontal=1;startSize=26;horizontalStack=0;resizeParent=1;resizeParentMax=0;resizeLast=0;collapsible=1;marginBottom=0;whiteSpace=wrap;html=1;" parent="1" vertex="1">
          <mxGeometry x="220" y="424" width="160" height="110" as="geometry" />
        </mxCell>
        <mxCell id="lJhDyDG1HW2excrZ2yXK-94" value="+ materials : vector&amp;lt;string&amp;gt;" style="text;strokeColor=none;fillColor=none;align=left;verticalAlign=top;spacingLeft=4;spacingRight=4;overflow=hidden;rotatable=0;points=[[0,0.5],[1,0.5]];portConstraint=eastwest;whiteSpace=wrap;html=1;" parent="lJhDyDG1HW2excrZ2yXK-93" vertex="1">
          <mxGeometry y="26" width="160" height="26" as="geometry" />
        </mxCell>
        <mxCell id="lJhDyDG1HW2excrZ2yXK-95" value="" style="line;strokeWidth=1;fillColor=none;align=left;verticalAlign=middle;spacingTop=-1;spacingLeft=3;spacingRight=3;rotatable=0;labelPosition=right;points=[];portConstraint=eastwest;strokeColor=inherit;" parent="lJhDyDG1HW2excrZ2yXK-93" vertex="1">
          <mxGeometry y="52" width="160" height="8" as="geometry" />
        </mxCell>
        <mxCell id="lJhDyDG1HW2excrZ2yXK-96" value="+ addMaterial(string) : void&lt;div&gt;+ printNest() : void&lt;br&gt;&lt;div&gt;&lt;br&gt;&lt;/div&gt;&lt;/div&gt;" style="text;strokeColor=none;fillColor=none;align=left;verticalAlign=top;spacingLeft=4;spacingRight=4;overflow=hidden;rotatable=0;points=[[0,0.5],[1,0.5]];portConstraint=eastwest;whiteSpace=wrap;html=1;" parent="lJhDyDG1HW2excrZ2yXK-93" vertex="1">
          <mxGeometry y="60" width="160" height="50" as="geometry" />
        </mxCell>
        <mxCell id="lJhDyDG1HW2excrZ2yXK-110" style="edgeStyle=orthogonalEdgeStyle;rounded=0;orthogonalLoop=1;jettySize=auto;html=1;endArrow=none;endFill=0;" parent="1" source="lJhDyDG1HW2excrZ2yXK-31" edge="1">
          <mxGeometry relative="1" as="geometry">
            <mxPoint x="-230" y="400" as="targetPoint" />
          </mxGeometry>
        </mxCell>
        <mxCell id="lJhDyDG1HW2excrZ2yXK-31" value="UnovanRufflet" style="swimlane;fontStyle=1;align=center;verticalAlign=top;childLayout=stackLayout;horizontal=1;startSize=26;horizontalStack=0;resizeParent=1;resizeParentMax=0;resizeLast=0;collapsible=1;marginBottom=0;whiteSpace=wrap;html=1;" parent="1" vertex="1">
          <mxGeometry x="-310" y="440" width="160" height="158" as="geometry" />
        </mxCell>
        <mxCell id="lJhDyDG1HW2excrZ2yXK-32" value="+ name : string&lt;div&gt;+ region : string&lt;/div&gt;&lt;div&gt;+ activity : SeasonalActivity*&lt;/div&gt;" style="text;strokeColor=none;fillColor=none;align=left;verticalAlign=top;spacingLeft=4;spacingRight=4;overflow=hidden;rotatable=0;points=[[0,0.5],[1,0.5]];portConstraint=eastwest;whiteSpace=wrap;html=1;" parent="lJhDyDG1HW2excrZ2yXK-31" vertex="1">
          <mxGeometry y="26" width="160" height="54" as="geometry" />
        </mxCell>
        <mxCell id="lJhDyDG1HW2excrZ2yXK-33" value="" style="line;strokeWidth=1;fillColor=none;align=left;verticalAlign=middle;spacingTop=-1;spacingLeft=3;spacingRight=3;rotatable=0;labelPosition=right;points=[];portConstraint=eastwest;strokeColor=inherit;" parent="lJhDyDG1HW2excrZ2yXK-31" vertex="1">
          <mxGeometry y="80" width="160" height="8" as="geometry" />
        </mxCell>
        <mxCell id="lJhDyDG1HW2excrZ2yXK-34" value="+ UnovanRufflet()&amp;nbsp;&lt;div&gt;+ ~UnovanRufflet(): virtual&lt;/div&gt;&lt;div&gt;+ allActivities() : v&lt;span style=&quot;background-color: initial;&quot;&gt;oid&lt;/span&gt;&lt;/div&gt;&lt;div&gt;&amp;nbsp;&amp;nbsp;&lt;/div&gt;" style="text;strokeColor=none;fillColor=none;align=left;verticalAlign=top;spacingLeft=4;spacingRight=4;overflow=hidden;rotatable=0;points=[[0,0.5],[1,0.5]];portConstraint=eastwest;whiteSpace=wrap;html=1;" parent="lJhDyDG1HW2excrZ2yXK-31" vertex="1">
          <mxGeometry y="88" width="160" height="70" as="geometry" />
        </mxCell>
        <mxCell id="lJhDyDG1HW2excrZ2yXK-109" style="edgeStyle=orthogonalEdgeStyle;rounded=0;orthogonalLoop=1;jettySize=auto;html=1;entryX=-0.005;entryY=0.924;entryDx=0;entryDy=0;entryPerimeter=0;endSize=16;endArrow=block;endFill=1;endFillColor=#FFFFFF;" parent="1" source="lJhDyDG1HW2excrZ2yXK-27" target="lJhDyDG1HW2excrZ2yXK-16" edge="1">
          <mxGeometry relative="1" as="geometry" />
        </mxCell>
        <mxCell id="lJhDyDG1HW2excrZ2yXK-124" value="" style="endArrow=none;html=1;rounded=0;" parent="1" edge="1">
          <mxGeometry width="50" height="50" relative="1" as="geometry">
            <mxPoint x="20" y="960" as="sourcePoint" />
            <mxPoint x="20" y="760" as="targetPoint" />
          </mxGeometry>
        </mxCell>
        <mxCell id="lJhDyDG1HW2excrZ2yXK-125" value="" style="endArrow=none;html=1;rounded=0;strokeWidth=1;" parent="1" edge="1">
          <mxGeometry width="50" height="50" relative="1" as="geometry">
            <mxPoint x="20" y="960" as="sourcePoint" />
            <mxPoint x="20" y="760" as="targetPoint" />
          </mxGeometry>
        </mxCell>
        <mxCell id="lJhDyDG1HW2excrZ2yXK-126" value="" style="endArrow=none;html=1;rounded=0;" parent="1" edge="1">
          <mxGeometry width="50" height="50" relative="1" as="geometry">
            <mxPoint x="-740" y="960" as="sourcePoint" />
            <mxPoint x="20" y="960" as="targetPoint" />
          </mxGeometry>
        </mxCell>
        <mxCell id="lJhDyDG1HW2excrZ2yXK-132" style="edgeStyle=orthogonalEdgeStyle;rounded=0;orthogonalLoop=1;jettySize=auto;html=1;entryX=1.008;entryY=0.917;entryDx=0;entryDy=0;entryPerimeter=0;endSize=24;endArrow=diamondThin;endFill=1;endFillColor=#FFFFFF;" parent="1" source="lJhDyDG1HW2excrZ2yXK-85" target="lJhDyDG1HW2excrZ2yXK-49" edge="1">
          <mxGeometry relative="1" as="geometry" />
        </mxCell>
        <mxCell id="lJhDyDG1HW2excrZ2yXK-136" value="" style="endArrow=none;html=1;rounded=0;" parent="1" edge="1">
          <mxGeometry width="50" height="50" relative="1" as="geometry">
            <mxPoint x="200" y="800" as="sourcePoint" />
            <mxPoint x="680" y="800" as="targetPoint" />
          </mxGeometry>
        </mxCell>
        <mxCell id="lJhDyDG1HW2excrZ2yXK-137" value="" style="endArrow=none;html=1;rounded=0;exitX=0.699;exitY=0;exitDx=0;exitDy=0;edgeStyle=orthogonalEdgeStyle;exitPerimeter=0;endFill=0;startSize=24;endSize=24;entryX=0.5;entryY=1;entryDx=0;entryDy=0;startArrow=diamondThin;startFill=1;" parent="1" source="lJhDyDG1HW2excrZ2yXK-40" target="lJhDyDG1HW2excrZ2yXK-93" edge="1">
          <mxGeometry width="50" height="50" relative="1" as="geometry">
            <mxPoint x="140" y="620" as="sourcePoint" />
            <mxPoint x="281" y="536" as="targetPoint" />
          </mxGeometry>
        </mxCell>
        <mxCell id="lJhDyDG1HW2excrZ2yXK-139" style="edgeStyle=orthogonalEdgeStyle;rounded=0;orthogonalLoop=1;jettySize=auto;html=1;entryX=1.013;entryY=0.613;entryDx=0;entryDy=0;entryPerimeter=0;endArrow=none;endFill=0;endSize=24;startSize=24;startArrow=diamondThin;startFill=1;" parent="1" source="lJhDyDG1HW2excrZ2yXK-1" target="lJhDyDG1HW2excrZ2yXK-16" edge="1">
          <mxGeometry relative="1" as="geometry" />
        </mxCell>
        <mxCell id="lJhDyDG1HW2excrZ2yXK-140" value="&lt;i&gt;NestBuilder&lt;/i&gt;" style="swimlane;fontStyle=1;align=center;verticalAlign=top;childLayout=stackLayout;horizontal=1;startSize=26;horizontalStack=0;resizeParent=1;resizeParentMax=0;resizeLast=0;collapsible=1;marginBottom=0;whiteSpace=wrap;html=1;" parent="1" vertex="1">
          <mxGeometry x="370" y="570" width="160" height="86" as="geometry" />
        </mxCell>
        <mxCell id="lJhDyDG1HW2excrZ2yXK-141" value="+ material : vector&amp;lt;string&amp;gt;" style="text;strokeColor=none;fillColor=none;align=left;verticalAlign=top;spacingLeft=4;spacingRight=4;overflow=hidden;rotatable=0;points=[[0,0.5],[1,0.5]];portConstraint=eastwest;whiteSpace=wrap;html=1;" parent="lJhDyDG1HW2excrZ2yXK-140" vertex="1">
          <mxGeometry y="26" width="160" height="26" as="geometry" />
        </mxCell>
        <mxCell id="lJhDyDG1HW2excrZ2yXK-142" value="" style="line;strokeWidth=1;fillColor=none;align=left;verticalAlign=middle;spacingTop=-1;spacingLeft=3;spacingRight=3;rotatable=0;labelPosition=right;points=[];portConstraint=eastwest;strokeColor=inherit;" parent="lJhDyDG1HW2excrZ2yXK-140" vertex="1">
          <mxGeometry y="52" width="160" height="8" as="geometry" />
        </mxCell>
        <mxCell id="lJhDyDG1HW2excrZ2yXK-143" value="+ buildNest() : virtual void" style="text;strokeColor=none;fillColor=none;align=left;verticalAlign=top;spacingLeft=4;spacingRight=4;overflow=hidden;rotatable=0;points=[[0,0.5],[1,0.5]];portConstraint=eastwest;whiteSpace=wrap;html=1;" parent="lJhDyDG1HW2excrZ2yXK-140" vertex="1">
          <mxGeometry y="60" width="160" height="26" as="geometry" />
        </mxCell>
        <mxCell id="lJhDyDG1HW2excrZ2yXK-144" value="KalosianFletchlingNestBuilder" style="swimlane;fontStyle=1;align=center;verticalAlign=top;childLayout=stackLayout;horizontal=1;startSize=26;horizontalStack=0;resizeParent=1;resizeParentMax=0;resizeLast=0;collapsible=1;marginBottom=0;whiteSpace=wrap;html=1;" parent="1" vertex="1">
          <mxGeometry x="417.5" y="284" width="195" height="86" as="geometry" />
        </mxCell>
        <mxCell id="lJhDyDG1HW2excrZ2yXK-145" value="+ material : vector&amp;lt;string&amp;gt;" style="text;strokeColor=none;fillColor=none;align=left;verticalAlign=top;spacingLeft=4;spacingRight=4;overflow=hidden;rotatable=0;points=[[0,0.5],[1,0.5]];portConstraint=eastwest;whiteSpace=wrap;html=1;" parent="lJhDyDG1HW2excrZ2yXK-144" vertex="1">
          <mxGeometry y="26" width="195" height="26" as="geometry" />
        </mxCell>
        <mxCell id="lJhDyDG1HW2excrZ2yXK-146" value="" style="line;strokeWidth=1;fillColor=none;align=left;verticalAlign=middle;spacingTop=-1;spacingLeft=3;spacingRight=3;rotatable=0;labelPosition=right;points=[];portConstraint=eastwest;strokeColor=inherit;" parent="lJhDyDG1HW2excrZ2yXK-144" vertex="1">
          <mxGeometry y="52" width="195" height="8" as="geometry" />
        </mxCell>
        <mxCell id="lJhDyDG1HW2excrZ2yXK-147" value="+ KalosianFletchlingNestBuilder()&amp;nbsp;" style="text;strokeColor=none;fillColor=none;align=left;verticalAlign=top;spacingLeft=4;spacingRight=4;overflow=hidden;rotatable=0;points=[[0,0.5],[1,0.5]];portConstraint=eastwest;whiteSpace=wrap;html=1;" parent="lJhDyDG1HW2excrZ2yXK-144" vertex="1">
          <mxGeometry y="60" width="195" height="26" as="geometry" />
        </mxCell>
        <mxCell id="lJhDyDG1HW2excrZ2yXK-149" style="edgeStyle=orthogonalEdgeStyle;rounded=0;orthogonalLoop=1;jettySize=auto;html=1;entryX=1.003;entryY=0.283;entryDx=0;entryDy=0;entryPerimeter=0;endArrow=diamondThin;endFill=1;strokeColor=default;endFillColor=#FFFFFF;endSize=24;" parent="1" source="lJhDyDG1HW2excrZ2yXK-141" target="lJhDyDG1HW2excrZ2yXK-43" edge="1">
          <mxGeometry relative="1" as="geometry" />
        </mxCell>
        <mxCell id="lJhDyDG1HW2excrZ2yXK-150" value="KalosianRuffletNestBuilder" style="swimlane;fontStyle=1;align=center;verticalAlign=top;childLayout=stackLayout;horizontal=1;startSize=26;horizontalStack=0;resizeParent=1;resizeParentMax=0;resizeLast=0;collapsible=1;marginBottom=0;whiteSpace=wrap;html=1;" parent="1" vertex="1">
          <mxGeometry x="660" y="284" width="180" height="86" as="geometry" />
        </mxCell>
        <mxCell id="lJhDyDG1HW2excrZ2yXK-151" value="+ material : vector&amp;lt;string&amp;gt;" style="text;strokeColor=none;fillColor=none;align=left;verticalAlign=top;spacingLeft=4;spacingRight=4;overflow=hidden;rotatable=0;points=[[0,0.5],[1,0.5]];portConstraint=eastwest;whiteSpace=wrap;html=1;" parent="lJhDyDG1HW2excrZ2yXK-150" vertex="1">
          <mxGeometry y="26" width="180" height="26" as="geometry" />
        </mxCell>
        <mxCell id="lJhDyDG1HW2excrZ2yXK-152" value="" style="line;strokeWidth=1;fillColor=none;align=left;verticalAlign=middle;spacingTop=-1;spacingLeft=3;spacingRight=3;rotatable=0;labelPosition=right;points=[];portConstraint=eastwest;strokeColor=inherit;" parent="lJhDyDG1HW2excrZ2yXK-150" vertex="1">
          <mxGeometry y="52" width="180" height="8" as="geometry" />
        </mxCell>
        <mxCell id="lJhDyDG1HW2excrZ2yXK-153" value="+ KalosianRuffletNestBuilder()" style="text;strokeColor=none;fillColor=none;align=left;verticalAlign=top;spacingLeft=4;spacingRight=4;overflow=hidden;rotatable=0;points=[[0,0.5],[1,0.5]];portConstraint=eastwest;whiteSpace=wrap;html=1;" parent="lJhDyDG1HW2excrZ2yXK-150" vertex="1">
          <mxGeometry y="60" width="180" height="26" as="geometry" />
        </mxCell>
        <mxCell id="lJhDyDG1HW2excrZ2yXK-165" style="edgeStyle=orthogonalEdgeStyle;rounded=0;orthogonalLoop=1;jettySize=auto;html=1;endArrow=none;endFill=0;" parent="1" source="lJhDyDG1HW2excrZ2yXK-154" target="lJhDyDG1HW2excrZ2yXK-144" edge="1">
          <mxGeometry relative="1" as="geometry" />
        </mxCell>
        <mxCell id="lJhDyDG1HW2excrZ2yXK-154" value="UnovanFletchlingNestBuilder" style="swimlane;fontStyle=1;align=center;verticalAlign=top;childLayout=stackLayout;horizontal=1;startSize=26;horizontalStack=0;resizeParent=1;resizeParentMax=0;resizeLast=0;collapsible=1;marginBottom=0;whiteSpace=wrap;html=1;" parent="1" vertex="1">
          <mxGeometry x="420" y="417" width="190" height="86" as="geometry" />
        </mxCell>
        <mxCell id="lJhDyDG1HW2excrZ2yXK-155" value="+ material : vector&amp;lt;string&amp;gt;" style="text;strokeColor=none;fillColor=none;align=left;verticalAlign=top;spacingLeft=4;spacingRight=4;overflow=hidden;rotatable=0;points=[[0,0.5],[1,0.5]];portConstraint=eastwest;whiteSpace=wrap;html=1;" parent="lJhDyDG1HW2excrZ2yXK-154" vertex="1">
          <mxGeometry y="26" width="190" height="26" as="geometry" />
        </mxCell>
        <mxCell id="lJhDyDG1HW2excrZ2yXK-156" value="" style="line;strokeWidth=1;fillColor=none;align=left;verticalAlign=middle;spacingTop=-1;spacingLeft=3;spacingRight=3;rotatable=0;labelPosition=right;points=[];portConstraint=eastwest;strokeColor=inherit;" parent="lJhDyDG1HW2excrZ2yXK-154" vertex="1">
          <mxGeometry y="52" width="190" height="8" as="geometry" />
        </mxCell>
        <mxCell id="lJhDyDG1HW2excrZ2yXK-157" value="+ UnovanFletchlingNestBuilder()" style="text;strokeColor=none;fillColor=none;align=left;verticalAlign=top;spacingLeft=4;spacingRight=4;overflow=hidden;rotatable=0;points=[[0,0.5],[1,0.5]];portConstraint=eastwest;whiteSpace=wrap;html=1;" parent="lJhDyDG1HW2excrZ2yXK-154" vertex="1">
          <mxGeometry y="60" width="190" height="26" as="geometry" />
        </mxCell>
        <mxCell id="lJhDyDG1HW2excrZ2yXK-163" style="edgeStyle=orthogonalEdgeStyle;rounded=0;orthogonalLoop=1;jettySize=auto;html=1;endArrow=none;endFill=0;" parent="1" source="lJhDyDG1HW2excrZ2yXK-158" target="lJhDyDG1HW2excrZ2yXK-150" edge="1">
          <mxGeometry relative="1" as="geometry" />
        </mxCell>
        <mxCell id="lJhDyDG1HW2excrZ2yXK-158" value="UnovanRuffletNestBuilder" style="swimlane;fontStyle=1;align=center;verticalAlign=top;childLayout=stackLayout;horizontal=1;startSize=26;horizontalStack=0;resizeParent=1;resizeParentMax=0;resizeLast=0;collapsible=1;marginBottom=0;whiteSpace=wrap;html=1;" parent="1" vertex="1">
          <mxGeometry x="665" y="417" width="170" height="86" as="geometry" />
        </mxCell>
        <mxCell id="lJhDyDG1HW2excrZ2yXK-159" value="+ material : vector&amp;lt;string&amp;gt;" style="text;strokeColor=none;fillColor=none;align=left;verticalAlign=top;spacingLeft=4;spacingRight=4;overflow=hidden;rotatable=0;points=[[0,0.5],[1,0.5]];portConstraint=eastwest;whiteSpace=wrap;html=1;" parent="lJhDyDG1HW2excrZ2yXK-158" vertex="1">
          <mxGeometry y="26" width="170" height="26" as="geometry" />
        </mxCell>
        <mxCell id="lJhDyDG1HW2excrZ2yXK-160" value="" style="line;strokeWidth=1;fillColor=none;align=left;verticalAlign=middle;spacingTop=-1;spacingLeft=3;spacingRight=3;rotatable=0;labelPosition=right;points=[];portConstraint=eastwest;strokeColor=inherit;" parent="lJhDyDG1HW2excrZ2yXK-158" vertex="1">
          <mxGeometry y="52" width="170" height="8" as="geometry" />
        </mxCell>
        <mxCell id="lJhDyDG1HW2excrZ2yXK-161" value="+&amp;nbsp;UnovanRuffletNestBuilder()" style="text;strokeColor=none;fillColor=none;align=left;verticalAlign=top;spacingLeft=4;spacingRight=4;overflow=hidden;rotatable=0;points=[[0,0.5],[1,0.5]];portConstraint=eastwest;whiteSpace=wrap;html=1;" parent="lJhDyDG1HW2excrZ2yXK-158" vertex="1">
          <mxGeometry y="60" width="170" height="26" as="geometry" />
        </mxCell>
        <mxCell id="lJhDyDG1HW2excrZ2yXK-166" value="" style="endArrow=none;html=1;rounded=0;" parent="1" edge="1">
          <mxGeometry width="50" height="50" relative="1" as="geometry">
            <mxPoint x="510" y="400" as="sourcePoint" />
            <mxPoint x="750" y="400" as="targetPoint" />
          </mxGeometry>
        </mxCell>
        <mxCell id="lJhDyDG1HW2excrZ2yXK-167" value="" style="endArrow=none;html=1;rounded=0;" parent="1" edge="1">
          <mxGeometry width="50" height="50" relative="1" as="geometry">
            <mxPoint x="640" y="400" as="sourcePoint" />
            <mxPoint x="640" y="630" as="targetPoint" />
          </mxGeometry>
        </mxCell>
        <mxCell id="lJhDyDG1HW2excrZ2yXK-168" value="" style="endArrow=block;html=1;rounded=0;endSize=16;startSize=16;endFill=1;endFillColor=#FFFFFF;" parent="1" edge="1">
          <mxGeometry width="50" height="50" relative="1" as="geometry">
            <mxPoint x="640" y="630" as="sourcePoint" />
            <mxPoint x="530" y="630" as="targetPoint" />
          </mxGeometry>
        </mxCell>
        <mxCell id="lJhDyDG1HW2excrZ2yXK-171" value="Use" style="endArrow=open;endSize=12;dashed=1;html=1;rounded=0;entryX=1.005;entryY=0.793;entryDx=0;entryDy=0;entryPerimeter=0;exitX=0.5;exitY=0;exitDx=0;exitDy=0;edgeStyle=orthogonalEdgeStyle;" parent="1" source="lJhDyDG1HW2excrZ2yXK-140" target="lJhDyDG1HW2excrZ2yXK-96" edge="1">
          <mxGeometry width="160" relative="1" as="geometry">
            <mxPoint x="420" y="540" as="sourcePoint" />
            <mxPoint x="580" y="540" as="targetPoint" />
          </mxGeometry>
        </mxCell>
        <mxCell id="lJhDyDG1HW2excrZ2yXK-172" style="edgeStyle=orthogonalEdgeStyle;rounded=0;orthogonalLoop=1;jettySize=auto;html=1;entryX=1;entryY=0.118;entryDx=0;entryDy=0;entryPerimeter=0;endArrow=none;endFill=0;" parent="1" source="lJhDyDG1HW2excrZ2yXK-9" target="lJhDyDG1HW2excrZ2yXK-12" edge="1">
          <mxGeometry relative="1" as="geometry" />
        </mxCell>
        <mxCell id="rgclIkUoX49irN9JSvik-1" value="UnovanFletchlingSpring" style="swimlane;fontStyle=1;align=center;verticalAlign=top;childLayout=stackLayout;horizontal=1;startSize=26;horizontalStack=0;resizeParent=1;resizeParentMax=0;resizeLast=0;collapsible=1;marginBottom=0;whiteSpace=wrap;html=1;" parent="1" vertex="1">
          <mxGeometry x="570" y="640" width="210" height="130" as="geometry" />
        </mxCell>
        <mxCell id="rgclIkUoX49irN9JSvik-2" value="+ nest : Nest&lt;div&gt;+ nestbuilder : NestBuilder*&lt;/div&gt;" style="text;strokeColor=none;fillColor=none;align=left;verticalAlign=top;spacingLeft=4;spacingRight=4;overflow=hidden;rotatable=0;points=[[0,0.5],[1,0.5]];portConstraint=eastwest;whiteSpace=wrap;html=1;" parent="rgclIkUoX49irN9JSvik-1" vertex="1">
          <mxGeometry y="26" width="210" height="44" as="geometry" />
        </mxCell>
        <mxCell id="rgclIkUoX49irN9JSvik-3" value="" style="line;strokeWidth=1;fillColor=none;align=left;verticalAlign=middle;spacingTop=-1;spacingLeft=3;spacingRight=3;rotatable=0;labelPosition=right;points=[];portConstraint=eastwest;strokeColor=inherit;" parent="rgclIkUoX49irN9JSvik-1" vertex="1">
          <mxGeometry y="70" width="210" height="8" as="geometry" />
        </mxCell>
        <mxCell id="rgclIkUoX49irN9JSvik-4" value="&lt;div&gt;+&amp;nbsp;UnovanRufflet() &lt;br&gt;&lt;/div&gt;+ performActivity : virtual void" style="text;strokeColor=none;fillColor=none;align=left;verticalAlign=top;spacingLeft=4;spacingRight=4;overflow=hidden;rotatable=0;points=[[0,0.5],[1,0.5]];portConstraint=eastwest;whiteSpace=wrap;html=1;" parent="rgclIkUoX49irN9JSvik-1" vertex="1">
          <mxGeometry y="78" width="210" height="52" as="geometry" />
        </mxCell>
      </root>
    </mxGraphModel>
  </diagram>
</mxfile>
